<?xml version="1.0" standalone="no"?>
<!DOCTYPE svg PUBLIC "-//W3C//DTD SVG 20010904//EN"
 "http://www.w3.org/TR/2001/REC-SVG-20010904/DTD/svg10.dtd">
<svg version="1.0" xmlns="http://www.w3.org/2000/svg"
 width="512.000000pt" height="512.000000pt" viewBox="0 0 512.000000 512.000000"
 preserveAspectRatio="xMidYMid meet">

<g transform="translate(0.000000,512.000000) scale(0.100000,-0.100000)"
fill="#000000" stroke="none">
<path d="M2125 5104 c-48 -18 -99 -65 -128 -119 -20 -36 -22 -59 -25 -235 l-4
-195 -96 -34 c-54 -19 -144 -56 -201 -82 l-104 -49 -131 128 c-72 70 -149 136
-171 147 -53 26 -146 27 -200 1 -54 -26 -585 -557 -611 -611 -26 -54 -25 -147
1 -200 11 -22 77 -99 147 -171 l128 -131 -49 -104 c-26 -57 -63 -147 -82 -201
l-34 -96 -195 -4 c-217 -4 -240 -10 -307 -80 -61 -63 -63 -79 -63 -508 0 -429
2 -445 63 -508 67 -70 90 -76 307 -80 l195 -4 34 -96 c19 -54 56 -144 82 -201
l49 -104 -128 -131 c-70 -72 -136 -149 -147 -171 -26 -53 -27 -146 -1 -200 26
-55 557 -585 611 -610 54 -26 147 -25 200 0 22 11 99 77 171 147 l131 128 104
-49 c57 -26 147 -63 201 -82 l96 -34 4 -195 c4 -217 10 -240 80 -307 63 -61
79 -63 508 -63 429 0 445 2 508 63 70 67 76 90 80 307 l4 195 96 34 c54 19
144 56 201 82 l104 49 131 -128 c72 -70 149 -136 171 -147 53 -25 146 -26 200
0 54 25 585 555 611 610 26 54 25 147 -1 200 -11 22 -77 99 -147 171 l-128
131 49 104 c26 57 63 147 82 201 l34 96 195 4 c217 4 240 10 307 80 49 51 63
103 63 240 0 113 -1 120 -25 143 -31 32 -69 32 -100 0 -24 -23 -25 -30 -25
-139 0 -107 -2 -117 -24 -143 l-24 -28 -209 -5 c-179 -4 -213 -8 -236 -23 -38
-24 -62 -67 -93 -162 -15 -44 -53 -137 -85 -206 -60 -128 -69 -170 -48 -226 6
-15 72 -90 147 -165 123 -125 136 -141 136 -173 0 -34 -18 -54 -272 -307 -253
-254 -273 -272 -307 -272 -32 0 -48 13 -173 136 -75 75 -150 141 -165 147 -56
21 -98 12 -226 -48 -69 -32 -162 -70 -206 -85 -95 -31 -138 -55 -162 -93 -15
-23 -19 -57 -23 -236 l-5 -209 -28 -24 -29 -25 -384 3 -383 3 -23 23 c-22 22
-23 31 -28 230 -4 178 -8 212 -23 235 -24 38 -67 62 -162 93 -44 15 -137 53
-206 85 -128 60 -170 69 -226 48 -15 -6 -90 -72 -165 -147 -125 -123 -141
-136 -173 -136 -34 0 -54 18 -307 272 -254 253 -272 273 -272 307 0 32 13 48
136 173 75 75 141 150 147 165 21 55 12 98 -43 216 -30 64 -71 163 -91 221
-36 102 -59 140 -100 163 -13 8 -97 14 -227 17 -199 5 -208 6 -230 28 l-23 23
0 389 0 389 23 23 c22 22 31 23 230 28 270 6 262 2 333 198 22 59 62 154 89
212 51 109 60 153 39 207 -6 15 -72 90 -147 165 -123 125 -136 141 -136 173 0
34 18 54 272 307 253 254 273 272 307 272 32 0 48 -13 173 -136 75 -75 150
-141 165 -147 56 -21 98 -12 226 48 69 32 162 70 206 85 95 31 138 55 162 93
15 23 19 57 23 235 6 264 -2 252 168 256 102 3 120 6 140 25 32 29 30 79 -4
106 -24 19 -40 21 -143 20 -75 0 -130 -6 -156 -15z"/>
<path d="M2688 5106 c-25 -19 -37 -57 -26 -85 16 -44 35 -50 160 -51 109 0
119 -2 145 -24 l28 -24 5 -209 c4 -179 8 -213 23 -236 24 -38 67 -62 162 -93
44 -15 137 -53 206 -85 128 -60 170 -69 226 -48 15 6 90 72 165 147 125 123
141 136 173 136 34 0 54 -18 307 -272 254 -253 272 -273 272 -307 0 -32 -13
-48 -136 -173 -75 -75 -141 -150 -147 -165 -21 -56 -12 -98 48 -226 32 -69 70
-162 85 -206 31 -95 55 -138 93 -162 23 -15 57 -19 236 -23 l209 -5 24 -28
c22 -26 24 -36 24 -143 0 -109 1 -116 25 -139 31 -32 69 -32 100 0 24 23 25
30 25 143 0 137 -14 189 -63 240 -67 70 -90 76 -307 80 l-195 4 -34 96 c-19
54 -56 144 -82 201 l-49 104 128 131 c70 72 136 149 147 171 26 53 27 146 1
200 -26 54 -557 585 -611 611 -54 26 -147 25 -200 -1 -22 -11 -99 -77 -171
-147 l-131 -128 -104 49 c-57 26 -147 63 -201 82 l-96 34 -4 195 c-3 176 -5
199 -25 235 -30 56 -80 101 -132 120 -56 20 -277 21 -303 1z"/>
<path d="M2490 4033 c-627 -31 -1171 -460 -1346 -1063 -75 -259 -75 -562 1
-825 143 -496 550 -888 1053 -1014 246 -62 532 -57 772 13 550 160 954 618
1046 1186 20 122 20 338 0 460 -120 743 -779 1279 -1526 1243z m298 -169 c543
-86 977 -523 1079 -1088 22 -120 21 -332 -1 -450 -34 -179 -103 -348 -202
-497 -57 -87 -66 -94 -96 -78 -13 7 -169 70 -348 140 l-325 126 -3 65 c-3 63
-2 66 32 96 58 50 108 129 136 215 27 80 28 81 72 93 141 42 215 218 145 350
-24 45 -26 61 -30 209 -4 138 -8 171 -30 240 -62 189 -183 328 -363 416 -196
95 -411 93 -613 -7 -163 -81 -283 -220 -349 -407 -22 -63 -25 -93 -29 -237 -4
-149 -6 -169 -28 -210 -34 -66 -40 -119 -20 -185 25 -86 98 -158 179 -174 25
-6 32 -14 41 -51 25 -98 92 -210 164 -273 30 -26 32 -32 29 -84 l-3 -56 -325
-126 c-179 -70 -335 -133 -348 -140 -30 -16 -39 -9 -96 78 -146 220 -218 457
-219 721 -1 275 73 518 227 750 292 438 787 649 1324 564z m-93 -266 c74 -18
178 -80 240 -143 103 -103 149 -216 160 -385 5 -88 5 -93 -8 -64 -8 17 -56 74
-106 127 -120 125 -135 128 -256 63 -150 -82 -277 -123 -427 -141 l-58 -7 0
41 c0 181 111 390 261 490 67 45 84 47 194 19z m190 -590 l56 -63 -3 -235 c-4
-271 -13 -309 -95 -400 -187 -208 -522 -157 -641 98 -26 55 -27 64 -30 268
l-3 210 118 12 c183 19 351 69 478 142 28 16 53 30 57 30 3 0 32 -28 63 -62z
m244 -224 c35 -45 25 -120 -19 -144 -19 -10 -20 -7 -20 80 0 49 4 90 9 90 5 0
19 -12 30 -26z m-1119 -64 c0 -84 -8 -97 -35 -56 -22 32 -22 79 -1 110 28 43
36 30 36 -54z m735 -723 c4 -32 16 -59 36 -81 l29 -34 -29 -25 c-60 -50 -120
-72 -211 -75 -99 -4 -170 17 -233 69 l-37 31 29 27 c27 26 51 83 51 125 0 15
5 17 28 11 58 -14 227 -16 277 -2 28 8 51 11 52 8 1 -3 4 -28 8 -54z m-544
-232 c74 -71 183 -124 284 -138 149 -22 306 29 423 138 l63 58 254 -98 c140
-54 255 -101 255 -106 0 -13 -106 -104 -180 -153 -140 -94 -311 -166 -480
-203 -119 -25 -401 -25 -520 0 -228 49 -447 158 -605 301 -33 30 -58 56 -55
58 3 3 93 39 200 81 107 42 218 85 245 96 28 11 52 20 54 20 2 1 30 -24 62
-54z"/>
</g>
</svg>
